/* XPM */
static char *b2d02725bf9a4154eac299aac187ab57[] = {
/* columns rows colors chars-per-pixel */
"32 32 89 1 ",
"  c #161C64",
". c #1B1F63",
"X c #1C2264",
"o c #1E2368",
"O c #232665",
"+ c #222867",
"@ c #21266B",
"# c #262B6C",
"$ c #292E6F",
"% c #2B316C",
"& c #262B73",
"* c #2A2E71",
"= c #2C3175",
"- c #2D3279",
"; c #303576",
": c #353976",
"> c #31357B",
", c #333A7E",
"< c #3D427E",
"1 c #42467F",
"2 c #454A7F",
"3 c #343D82",
"4 c #374084",
"5 c #3C4283",
"6 c #414685",
"7 c #464A83",
"8 c #494D85",
"9 c #474D8B",
"0 c #494F8C",
"q c #4D528B",
"w c #535789",
"e c #575B8E",
"r c #5A5E8F",
"t c #595E96",
"y c #5B6098",
"u c #616594",
"i c #656A9D",
"p c #6E719C",
"a c #73779D",
"s c #686DA0",
"d c #6F74A4",
"f c #7174A4",
"g c #777AA2",
"h c #7A7CA7",
"j c #7D7FAB",
"k c #8185AD",
"l c #8A8EAE",
"z c #8D90AF",
"x c #8185B0",
"c c #8689B3",
"v c #8B8DB3",
"b c #8D90B3",
"n c #8F93B9",
"m c #9395B7",
"M c #9598B5",
"N c #989AB7",
"B c #9497B8",
"V c #979ABB",
"C c #999CBB",
"Z c #A1A3BE",
"A c #9FA3C3",
"S c #A4A6C2",
"D c #A6A9C4",
"F c #A9ABC4",
"G c #AAACC8",
"H c #AEB1C6",
"J c #AEB0CC",
"K c #B3B5CB",
"L c #B9BBD1",
"P c #C1C2D5",
"I c #C4C5D8",
"U c #CACBDC",
"Y c #D0D1DE",
"T c #CECFE0",
"R c #CFD1E2",
"E c #D3D4E3",
"W c #D7D8E4",
"Q c #D9DAE5",
"! c #DCDDE8",
"~ c #DEE0EA",
"^ c #E4E5EE",
"/ c #E8E9EF",
"( c #E6E6F0",
") c #EBECF2",
"_ c #EFF0F5",
"` c #F3F3F6",
"' c #F5F5F9",
"] c #F7F8FA",
"[ c #FFFFFF",
/* pixels */
"OOOOOOOO+++++#+##@&#$$$$&#$$$$$$",
"OXXOOO+O++++@#####&##$&$$$$$$&$#",
"OOOOO++++++++#@%=####$#&$&$&$$$#",
"OOO.O++++++++o#LK#o$#$$#$$$$&$$$",
"OO+OO++XXXX.+rU[[Ie#o@+#&$$$$=$$",
"OOOO+O%<2wpNR[[(/[[YVpe8<;$$$$$$",
"OOOO+.M]][[[[[Q8q![[[[[''B@$$$&$",
"OO+++XF][')!Kg=@@;hL!)'[[D@=$$%=",
"OO++OOS[Z::#. =JS* o$,<F[A@=$=$$",
"O++%O.S[v.<8um![[Wbu8<oV[A&%=#=$",
"%OOO#.S[v1'[[[[[[[[[[/,N[S&%===$",
"OOOOO.S[v7[[[[[[[[[[['5V[S&=====",
"OOOOOOD[v7[[[[[[[[[[['<V[D&;====",
"O%%OOOS[l7[[`][[[[[[['<V[A#=%;==",
"OO#OO.F[v7[SlYNQZKk]Z'5V[A#$===;",
"O###*oD[v7[lM`U2WHuHz'<V[S$=;;;;",
"####$oD[v7[/MMKgKZIap'5C[D&->;-:",
"#####oD[v8[KlUH]ZP/QC]6C[D=>>>:>",
"#O#$*@D[v7[[[[[[[[[[[`5C[D=>,>>,",
"#*$$*oA[K*~[[[[[[[[[[E-L[A->,,,>",
"$$$$*@j[`6d[[[[[[[[[]i0`[j&,,,,,",
"****&&5_[P*v[[[[[[[[x-U[/5,,,,,3",
"-***==#x[[K*f)[[[[^s-L[[x-,,,,,3",
"***=***&G[[U65G['D<9R[[D-3,,,333",
"******-*-G][)x-00-c_[[A,,>,,33,,",
"*-==*-*>-*v'[[RdfE[['c,-,,,,3333",
"**-==*----&yT[[[[[[Tt--33,333333",
"-*==-=-=---&3c^[[^x3-33,333,3333",
"-**---*>-->->&5nn6-,333333433333",
"**-*--->>>3->,----,,333344343333",
">----->>>>>,3>,,,,,3333434444444",
"---->>>>>3>,>,,3,,3,343434444444"
};
