/* XPM */
static char *_b52f2a9b1c749b9fa0469e08d105a69[] = {
/* columns rows colors chars-per-pixel */
"48 48 100 2 ",
"   c #141A5D",
".  c #151B62",
"X  c #1A1E63",
"o  c #1C2265",
"O  c #1E246A",
"+  c #232665",
"@  c #222867",
"#  c #21266B",
"$  c #262B6C",
"%  c #292E6E",
"&  c #232772",
"*  c #252B73",
"=  c #2A2E71",
"-  c #292E79",
";  c #2C3175",
":  c #2E3279",
">  c #303574",
",  c #323877",
"<  c #31357B",
"1  c #333A7E",
"2  c #3D417B",
"3  c #40457B",
"4  c #45497D",
"5  c #343D82",
"6  c #393F82",
"7  c #374084",
"8  c #3A4185",
"9  c #404687",
"0  c #4A4E86",
"q  c #444989",
"w  c #4A4F8B",
"e  c #4F5385",
"r  c #4F528D",
"t  c #54578E",
"y  c #54598D",
"u  c #5A5E8C",
"i  c #545A95",
"p  c #5A5F92",
"a  c #5E628F",
"s  c #5D6294",
"d  c #5E6399",
"f  c #616494",
"g  c #646893",
"h  c #61679D",
"j  c #65699C",
"k  c #6B6E9B",
"l  c #6E719B",
"z  c #72759E",
"x  c #74789E",
"c  c #6A6EA2",
"v  c #6E72A2",
"b  c #7375A2",
"n  c #7A7DA3",
"m  c #7B7FAC",
"M  c #7E81A4",
"N  c #7E81AE",
"B  c #8184A7",
"V  c #8184AC",
"C  c #8688AF",
"Z  c #8E91AF",
"A  c #8688B1",
"S  c #8B8DB5",
"D  c #8F91B7",
"F  c #8E92B9",
"G  c #9193B4",
"H  c #9699B5",
"J  c #989AB7",
"K  c #9395BC",
"L  c #979BBB",
"P  c #9B9DBC",
"I  c #9DA0BE",
"U  c #A2A5BE",
"Y  c #9D9FC2",
"T  c #9DA0C1",
"R  c #A2A5C3",
"E  c #A9ABC7",
"W  c #AAACC9",
"Q  c #AFB0CB",
"!  c #B3B5CD",
"~  c #B7B8CD",
"^  c #B9BBCF",
"/  c #B5B8D1",
"(  c #B9BBD1",
")  c #C3C4D5",
"_  c #C2C4D9",
"`  c #CBCCDC",
"'  c #CFD0DD",
"]  c #D0D1DE",
"[  c #CDCEE0",
"{  c #D2D3E2",
"}  c #DADBE6",
"|  c #DBDCE9",
" . c #DFE0EA",
".. c #E4E4ED",
"X. c #E9E9EF",
"o. c #E7E8F0",
"O. c #EBECF2",
"+. c #F1F2F6",
"@. c #F6F6F9",
"#. c #FFFFFF",
/* pixels */
"+ + + + X + + + @ @ @ @ @ @ @ @ @ @ @ # $ $ # $ $ $ $ $ % * $ % % % $ * % % $ % % * ; % % $ * $ ",
"+ o + + + + + + @ @ @ @ @ @ @ @ @ @ @ # # $ $ $ $ # $ $ $ % $ % % * % % % % % ; % % % * * % % * ",
"+ X + X + + + + @ @ @ @ @ @ @ @ @ @ @ $ $ @ # $ $ $ $ * % * * $ % % % % $ % % % * % % % * % $ $ ",
"+ + + + + + + + @ @ @ @ @ @ @ @ @ @ $ @ $ # $ @ $ $ $ $ $ $ $ % % % $ * * * % % ; % % % % % % % ",
"+ +   + + + + + @ @ @ @ @ @ @ @ @ @ $ $ @ @ O R L O $ $ $ $ $ % $ % * $ $ = $ = ; % % % % % ; % ",
"+ + + + + + + + @ @ @ @ @ @ @ @ @ @ @ $ O @ G #.#.A @ @ % $ % % % $ % % $ = = = % % % % ; * ; * ",
"+ + + + @ + + + @ @ @ @ @ @ @ @ @ @ o O e ( #.#.#.#.! 0 O O $ * * % % % % = = % % % * % ; % % % ",
"+ + + + + + @ @ + + o X o o X X $ 2 l ( @.#.#.#.#.#.#.@.~ c 2 % @ O @ # @ # % = % % ; ; % % % % ",
"+ + + + + % + @ + > u a g n G Q ] +.#.#.#.#.#.W Q #.#.#.#.#.+.' Q G n k f p , = % * % % % % ; % ",
"+ + + + + + + @ + H @.@.#.#.#.#.#.#.#.#.#.#.Q ; > / #.#.#.#.#.#.#.#.#.#.#.#.S # ; ; % % % % % % ",
"+ + + + @ @ @ + X P @.#.#.#.#.#.#.#.#.#.` v $ $ $ % b { #.#.#.#.#.#.#.#.#.#.L O % % % % % % ; % ",
"+ + + + @ @ @ % X J #.#.#.X.o.} ` W V r = O # , > # O ; t C Q ` | ..o.#.#.#.L @ % ; ; % % ; % % ",
"+ + @ @ @ @ @ @ X J #.#.! % > % @ O o @ # O , ` ( ; O $ # @ # * : , , _ #.#.L # ; % % % % ; % % ",
"@ @ @ @ @ @ + % X U #.#.U X + o O O O O , b | #.#.{ j > # O # # # $ @ / #.#.L # ; ; ; % % % % % ",
"@ @ @ @ @ @ + + X U #.#.U + > y s v S ! o.#.#.#.#.#.#. .Q C v h y ; # ! #.#.L $ ; ; ; % % ; % % ",
"@ + @ @ % + % + X J #.#.Q   l #.#.#.#.#.#.#.#.#.#.#.#.#.#.#.#.#.#.y O / #.#.L @ ; > ; ; ; % > ; ",
"% + + + % + + $ X P #.#.E . z #.#.#.#.#.#.#.#.#.#.#.#.#.#.#.#.#.#.p o ( #.#.L * ; ; ; ; % > % ; ",
"+ + + % + + $ $ X P #.#.E . z #.#.#.#.#.#.#.#.#.#.#.#.#.#.#.#.#.#.p O / #.#.L $ : > > ; ; ; ; > ",
"+ + + + + % % + X P #.#.W . z #.#.#.#.#.#.#.#.#.#.#.#.#.#.#.#.#.#.p O / #.#.L * > > > = > ; ; ; ",
"% + + % + + + + o I #.#.E . z #.#.#.#.#.#.#.#.#.#.#.#.#.#.#.#.#.#.s @ ^ #.#.L # % ; ; ; ; ; ; ; ",
"+ + % + + $ + % o T #.#.E . z #.#.#.@.#.#.#.#.#.#.#.#.#.#.#.#.#.#.p O ( #.#.L # ; ; ; ; % ; = : ",
"+ + + + $ @ $ + o P #.#.E . z #.#.G u l X.n ' #.B ' U l @.#.Z } #.s O / #.#.L # ; ; ; ; ; ; : > ",
"+ % % + $ $ $ $ o I #.#.W . v #.] 3 O.X.#.! a U g @.B $ G #.a ` #.p O ( #.#.L * ; ; > : > : ; > ",
"% + % + $ $ $ $ O I #.#.W X b #.O.u u ~ #.#.z @ ..#.M J e ' k ` #.s # / #.#.L * , : : , > : > > ",
"+ % + + = = = + O P #.#.W X b #.#.#.^ 2 ` +.a a U #.n ~ ^ u u ` #.s O ( #.#.L ; < : < < : : : : ",
"+ + = + = + = = O P #.#.W . v #.X.H ) e ' x P X.4 { n U #.x   ' #.s & ( #.#.L * < < : < < 1 , 1 ",
"= = + + + % = & O Y #.#.W . b #.+.J n ^ +.U #.#.) ) ) } #.O.J O.#.s * ( #.#.L * < < < , , , , , ",
"= + = = = % & = @ P #.#.W X b #.#.#.#.#.#.#.#.#.#.#.#.#.#.#.#.#.#.d * ( #.#.Y - , , : 1 , 1 , 1 ",
"+ % + % = % = + # I #.#./ o i #.#.#.#.#.#.#.#.#.#.#.#.#.#.#.#.#.@.w - ) #.#.L - 1 1 1 : : : 1 1 ",
"= % = % % % = = # D #.#.| > > | #.#.#.#.#.#.#.#.#.#.#.#.#.#.#.#._ : 8 o.#.#.F - 1 , 1 1 1 1 1 1 ",
"% = % % = = = = @ v #.#.#.b O b #.#.#.#.#.#.#.#.#.#.#.#.#.#.#.@.h $ m #.#.#.v : , 1 1 , 1 1 5 5 ",
"% = = = = = = = * 6 +.#.#.| , $ R #.#.#.#.#.#.#.#.#.#.#.#.#.#.G - 8  .#.#.o.8 < 1 1 5 1 1 1 1 5 ",
"= = = = = = = < = & R +.@.#.Q * ; W #.#.#.#.#.#.#.#.#.#.#.#.L - : ( #.#.#.T : 1 1 1 1 1 1 1 1 5 ",
"= = = > = < = = = - 9 ..@.@.#.R * * S @.#.#.#.#.#.#.#.#.+.N * < W #.#.#.o.8 < 1 1 1 1 1 1 5 1 5 ",
"= = = = = = = = = - & b @.#.#.#.W < O d { #.#.#.#.#.#.` i & 6 / #.#.#.@.c - 1 1 1 1 5 1 5 1 5 1 ",
"= < = = = = - = = < = & S #.#.#.#.[ r & 1 S X.#.#...N < & i { #.#.#.#.A - 1 1 1 1 1 1 5 5 5 1 5 ",
"= < = = < = = - ; = : = & D #.#.#.#.+.C : & 8 F S 8 & 5 S +.#.#.#.#.S - 1 1 1 1 : 5 5 5 5 5 1 1 ",
"= = = = = - = < ; ; ; ; : & N @.#.#.#.#.[ j - & & - c { #.#.#.#.+.m : 1 5 1 1 1 5 1 1 5 1 5 : 5 ",
"< = - < = = < = ; ; : : : : & d  .#.#.#.#.#.( h d _ #.#.#.#.#.| d - 1 1 1 1 1 1 1 5 5 5 5 5 5 5 ",
"= = = = = = - = ; ; : : : : < & 8 Q #.#.#.#.#.#.#.#.#.#.#.#.W 8 : 1 1 1 1 1 1 5 1 1 - 5 5 5 5 5 ",
"- = = = = = < = ; ; ; : : : : : : - c | #.#.#.#.#.#.#.#.} c - - 5 5 - 5 5 5 5 5 5 1 5 5 5 5 5 5 ",
"= = : : = < = = : : : : : : < : : < - 6 K O.#.#.#.#.o.D 6 - 6 5 - 5 5 5 5 5 5 5 5 5 5 5 5 5 5 5 ",
": = = = - < = < ; : : ; : : : : < < < < - q R +.o.Y 9 - < 6 < 5 5 5 5 5 5 5 5 5 5 1 5 5 5 7 5 5 ",
": = : = : - - < : : : : : : < < < < < < < : - 9 9 - < 5 < < 5 : 5 : 5 5 5 5 5 5 5 5 5 5 7 5 7 5 ",
": : = : < = < = : < - - < < < < < < < 6 < < 1 < < 1 1 < 6 6 5 5 5 5 5 5 7 7 5 7 7 7 7 7 7 7 5 7 ",
": = = = < = - < < < < 5 < < < 5 < < < < < 1 1 1 < 1 1 5 6 < 5 5 5 5 5 5 5 7 7 5 7 7 7 7 5 7 7 7 ",
"< < < < : < : < - < < < < - < < < < < 1 < 1 1 1 1 1 1 5 < 6 < 6 7 7 5 5 7 5 7 7 7 5 7 7 7 7 7 7 ",
"= = : : < - < < < < < < < 5 < 5 < 1 < < 1 6 5 1 5 1 1 1 6 < 6 6 7 5 5 5 7 5 7 7 7 7 7 7 7 7 7 7 "
};
