/* XPM */
static char *ada8f51128df4cf4a9a3d3516e0d0b47[] = {
/* columns rows colors chars-per-pixel */
"16 16 112 2 ",
"   c #1A1F62",
".  c #1C2162",
"X  c #1D2367",
"o  c #1E2366",
"O  c #212463",
"+  c #222564",
"@  c #212765",
"#  c #242766",
"$  c #212867",
"%  c #20266A",
"&  c #22276A",
"*  c #242768",
"=  c #242968",
"-  c #262969",
";  c #242A6D",
":  c #272B6D",
">  c #262C6E",
",  c #272D6F",
"<  c #2A2F6C",
"1  c #262B71",
"2  c #282E70",
"3  c #2B2E71",
"4  c #292E75",
"5  c #2C2E74",
"6  c #2C3173",
"7  c #2F3473",
"8  c #2A3176",
"9  c #2B3279",
"0  c #2C3178",
"q  c #2C3379",
"w  c #2E3379",
"e  c #30337A",
"r  c #30347B",
"t  c #32367A",
"y  c #30377D",
"u  c #33367D",
"i  c #33387C",
"p  c #32397D",
"a  c #333C7F",
"s  c #393E7A",
"d  c #383C7F",
"f  c #3D427D",
"g  c #333C80",
"h  c #373D80",
"j  c #343D83",
"k  c #363F84",
"l  c #374084",
"z  c #3D4383",
"x  c #384085",
"c  c #394086",
"v  c #494E86",
"b  c #4B4F87",
"n  c #4D5189",
"m  c #6E719C",
"M  c #6E719E",
"N  c #777CAA",
"B  c #797CA9",
"V  c #7C7FA8",
"C  c #7C7EAA",
"Z  c #7E81AA",
"A  c #7D81AD",
"S  c #888AAF",
"D  c #888AB1",
"F  c #8A8EB2",
"G  c #898DB4",
"H  c #8E90B3",
"J  c #8F92B5",
"K  c #9192B6",
"L  c #9294B7",
"P  c #9698B6",
"I  c #9396BB",
"U  c #9698B9",
"Y  c #9699BB",
"T  c #9B9DBB",
"R  c #A0A2C0",
"E  c #A4A7C0",
"W  c #AFB1C7",
"Q  c #AEB1C9",
"!  c #B0B2C8",
"~  c #B6B8CE",
"^  c #B8BACD",
"/  c #BABBCF",
"(  c #B7B9D0",
")  c #B9BBD2",
"_  c #B9BCD1",
"`  c #BCBED0",
"'  c #BDBFD2",
"]  c #BCBDD4",
"[  c #BCBED5",
"{  c #C3C4D7",
"}  c #C4C5DA",
"|  c #C6C8DB",
" . c #C8C9DA",
".. c #CACBDD",
"X. c #CCCDDF",
"o. c #D0D2E1",
"O. c #D4D5E2",
"+. c #DBDCE7",
"@. c #DCDDE8",
"#. c #DFDFE9",
"$. c #E0E0EA",
"%. c #E1E1EB",
"&. c #E5E5EC",
"*. c #E4E5EE",
"=. c #E8E8F0",
"-. c #EAEBF2",
";. c #F0F1F6",
":. c #F3F3F7",
">. c #F5F5F9",
",. c #F8F8FA",
"<. c #FBFBFC",
"1. c #FEFEFE",
/* pixels */
"O O + $ + $ $ % & 2 2 2 2 2 < & ",
"+ + $ $ + + . s s X & > 2 2 2 2 ",
"$ + O - < s m +.+.M f 7 4 2 2 2 ",
"# $ . P #.&.#.V Z %.=.#.U > 2 2 ",
"# $ . _ T b b L G b n R _ 2 < 2 ",
"# -   ~ S  .>.1.1.>.{ G _ & 6 6 ",
"# - . ~ H &.,.1.<.1.#.J ( 1 6 6 ",
"# - + ~ L ' ^ ! ! E ~ U ( 2 6 q ",
"* $ X _ L X.W ^ ` ! Q U ( 4 y t ",
": 4 & _ K O.1.1.1.1.o.I _ 6 p p ",
"4 3 + D +.C :.1.1.;.N #.G 9 p g ",
"5 5 4 e X...B } } B o.X.h p g g ",
"5 5 6 4 h ] =.I I -.[ k y g g g ",
"5 6 6 6 4 0 C =.*.A y y h g j j ",
"5 5 q e u y 9 k z q g k k h l k ",
"e q e y i i i p p h k k k l c l "
};
